<mxfile host="app.diagrams.net" modified="2024-05-17T02:53:45.983Z" agent="Mozilla/5.0 (X11; Linux x86_64) AppleWebKit/537.36 (KHTML, like Gecko) Chrome/122.0.0.0 Safari/537.36" version="24.4.2" etag="W29C5Ttnm0W4xlyZJ2QI" type="github">
  <diagram name="Page-1" id="mqsl0-2RgyMSY5Ndv3JZ">
    <mxGraphModel>
      <root>
        <mxCell id="0" />
        <mxCell id="1" parent="0" />
      </root>
    </mxGraphModel>
  </diagram>
</mxfile>
